<svg width="180" height="120" viewBox="0 0 180 120" fill="none" xmlns="http://www.w3.org/2000/svg">
<path d="M0 16C0 7.16344 7.16344 0 16 0H164C172.837 0 180 7.16344 180 16V120H0V16Z" fill="#F2F4F7"/>
<path fill-rule="evenodd" clip-rule="evenodd" d="M114 41.3328V78.6661C114 81.5994 111.6 83.9994 108.667 83.9994H71.3333C68.4 83.9994 66 81.5994 66 78.6661V41.3328C66 38.3994 68.4 35.9994 71.3333 35.9994H108.667C111.6 35.9994 114 38.3994 114 41.3328ZM87.3333 72.0261L81.7333 65.2794C81.1733 64.6128 80.16 64.6394 79.6533 65.3328L73.0133 73.8661C72.32 74.7461 72.9333 76.0261 74.0533 76.0261H106.027C107.12 76.0261 107.76 74.7728 107.093 73.8927L97.7333 61.4128C97.2 60.6928 96.1333 60.6928 95.6 61.3861L87.3333 72.0261Z" fill="#98A2B3"/>
</svg>
