<svg width="142" height="40" viewBox="0 0 142 40" fill="none" xmlns="http://www.w3.org/2000/svg">
<path d="M14.8545 0C11.1988 0 7.89979 1.53118 5.68856 4.21524V0.46836H0V39H5.68856V24.733C7.89979 27.4171 11.2701 29.0023 14.8545 29.0023C18.5814 29.0023 22.0766 27.5072 24.698 24.7691C27.3372 22.0309 28.7816 18.3741 28.7816 14.4651C28.7816 10.6282 27.3372 7.00739 24.698 4.26928C22.0409 1.51316 18.5458 0 14.8545 0ZM14.801 5.15196C19.8654 5.15196 23.8242 9.2231 23.8242 14.4111C23.8242 19.5811 19.7762 23.7783 14.801 23.7783C9.7722 23.7783 5.68856 19.5811 5.68856 14.4111C5.67073 9.40323 9.84353 5.15196 14.801 5.15196Z" fill="black"/>
<path d="M51.8951 19.9954C50.1118 22.3372 47.0803 23.7963 43.9596 23.7963C39.4836 23.7963 36.0598 20.9501 35.3643 16.6808H58.1543L58.1721 16.4286C58.2791 15.1497 58.1899 13.5464 57.9403 12.2494C57.4231 8.88083 55.7469 5.78245 53.2147 3.53072C50.6468 1.26097 47.3656 0 43.9596 0C36.0776 0 29.6758 6.503 29.6758 14.4831C29.6758 18.3561 31.138 21.9949 33.7951 24.733C36.4878 27.4891 40.09 29.0203 43.9418 29.0203C49.3807 29.0203 54.7126 25.9219 56.906 21.4725L51.8951 19.9954ZM35.3643 12.0693C36.1311 8.05219 39.6798 5.16998 43.9061 5.16998C48.0967 5.16998 51.5206 7.99815 52.3409 12.0693H35.3643Z" fill="black"/>
<path d="M82.3527 3.04434C80.195 1.08083 77.2883 0 74.1676 0C70.6724 0 67.5518 1.47714 65.4654 4.08915V0.46836H59.7768V28.588H65.4654V14.1769C65.4654 8.98891 68.7109 5.206 73.1868 5.206C76.575 5.206 80.2306 7.65589 80.2306 13.024V28.606H85.9192V11.5109C85.9192 8.08822 84.6888 5.15196 82.3527 3.04434Z" fill="black"/>
<path d="M111.206 3.04434C109.048 1.08083 106.141 0 103.021 0C99.5255 0 96.4048 1.47714 94.3184 4.08915V0.46836H88.6298V28.588H94.3184V14.1769C94.3184 8.98891 97.5639 5.206 102.04 5.206C105.428 5.206 109.084 7.65589 109.084 13.024V28.606H114.772V11.5109C114.772 8.08822 113.542 5.15196 111.206 3.04434Z" fill="black"/>
<path d="M136.06 0.470886L128.107 21.7452L119.69 0.470886H113.734L125.29 28.2302L120.921 39.0025H126.752L141.999 0.470886H136.06Z" fill="black"/>
<path d="M131.262 35.3439C131.262 33.2723 132.831 31.669 134.847 31.669C136.897 31.669 138.52 33.2543 138.52 35.3439C138.52 37.4154 136.897 39.0187 134.847 39.0187C132.831 39.0007 131.262 37.4154 131.262 35.3439Z" fill="#FDCB23"/>
</svg>
